<mxfile host="app.diagrams.net" modified="2023-11-15T14:56:41.771Z" agent="Mozilla/5.0 (Windows NT 10.0; Win64; x64) AppleWebKit/537.36 (KHTML, like Gecko) Chrome/119.0.0.0 Safari/537.36 Edg/119.0.0.0" etag="vvbUN_0SIczql_QE-LMB" version="22.1.1" type="device">
  <diagram id="C5RBs43oDa-KdzZeNtuy" name="Page-1">
    <mxGraphModel dx="1936" dy="628" grid="1" gridSize="10" guides="1" tooltips="1" connect="1" arrows="1" fold="1" page="1" pageScale="1" pageWidth="827" pageHeight="1169" math="0" shadow="0">
      <root>
        <mxCell id="WIyWlLk6GJQsqaUBKTNV-0" />
        <mxCell id="WIyWlLk6GJQsqaUBKTNV-1" parent="WIyWlLk6GJQsqaUBKTNV-0" />
        <mxCell id="9aqKh6qht5PxksOwf0Kg-6" style="edgeStyle=orthogonalEdgeStyle;rounded=0;orthogonalLoop=1;jettySize=auto;html=1;exitX=0.5;exitY=1;exitDx=0;exitDy=0;entryX=0.5;entryY=0;entryDx=0;entryDy=0;" edge="1" parent="WIyWlLk6GJQsqaUBKTNV-1" source="9aqKh6qht5PxksOwf0Kg-0" target="9aqKh6qht5PxksOwf0Kg-5">
          <mxGeometry relative="1" as="geometry" />
        </mxCell>
        <mxCell id="9aqKh6qht5PxksOwf0Kg-62" style="edgeStyle=orthogonalEdgeStyle;rounded=0;orthogonalLoop=1;jettySize=auto;html=1;exitX=1;exitY=0.5;exitDx=0;exitDy=0;" edge="1" parent="WIyWlLk6GJQsqaUBKTNV-1" source="9aqKh6qht5PxksOwf0Kg-0" target="9aqKh6qht5PxksOwf0Kg-3">
          <mxGeometry relative="1" as="geometry" />
        </mxCell>
        <mxCell id="9aqKh6qht5PxksOwf0Kg-0" value="&lt;font style=&quot;font-size: 17px;&quot;&gt;Entrada: (arquivo JSON)&lt;/font&gt;" style="rounded=0;whiteSpace=wrap;html=1;" vertex="1" parent="WIyWlLk6GJQsqaUBKTNV-1">
          <mxGeometry x="300" y="30" width="200" height="60" as="geometry" />
        </mxCell>
        <mxCell id="9aqKh6qht5PxksOwf0Kg-3" value="&lt;div style=&quot;text-align: left;&quot;&gt;&lt;span style=&quot;font-size: 21px; background-color: initial;&quot;&gt;{&lt;/span&gt;&lt;/div&gt;&lt;div style=&quot;text-align: left;&quot;&gt;&lt;span style=&quot;font-size: 21px; background-color: initial;&quot;&gt;&quot;PID&quot; : 5,&lt;/span&gt;&lt;/div&gt;&lt;div style=&quot;text-align: left;&quot;&gt;&lt;span style=&quot;font-size: 21px;&quot;&gt;&quot;PPID&quot;: 2,&lt;/span&gt;&lt;/div&gt;&lt;div style=&quot;text-align: left;&quot;&gt;&lt;span style=&quot;font-size: 21px;&quot;&gt;&quot;Status&quot;: &quot;READY&quot;&lt;/span&gt;&lt;/div&gt;&lt;div style=&quot;text-align: left;&quot;&gt;&lt;span style=&quot;font-size: 21px;&quot;&gt;&quot;Priority&quot;: 1&lt;/span&gt;&lt;/div&gt;&lt;font style=&quot;font-size: 21px;&quot;&gt;&lt;div style=&quot;text-align: left;&quot;&gt;&lt;span style=&quot;background-color: initial;&quot;&gt;&quot;TempoServico&quot; : 11,&lt;/span&gt;&lt;/div&gt;&lt;div style=&quot;text-align: left;&quot;&gt;&lt;span style=&quot;background-color: initial;&quot;&gt;&quot;TempoChegada&quot; : 2,&lt;/span&gt;&lt;/div&gt;&lt;div style=&quot;text-align: left;&quot;&gt;&lt;span style=&quot;background-color: initial;&quot;&gt;&quot;TempoES&quot; : [2, 4, 5],&lt;/span&gt;&lt;/div&gt;&lt;div style=&quot;text-align: left;&quot;&gt;&quot;TipoES&quot;: [&quot;PRINT&quot;, &quot;DISK&quot;, &quot;TAPE&quot;]&lt;/div&gt;&lt;div style=&quot;text-align: left;&quot;&gt;&lt;span style=&quot;background-color: initial;&quot;&gt;&quot;TimeUntilReady&quot;: 0&lt;/span&gt;&lt;/div&gt;&lt;div style=&quot;text-align: left;&quot;&gt;&lt;span style=&quot;background-color: initial;&quot;&gt;}&lt;/span&gt;&lt;/div&gt;&lt;/font&gt;" style="text;html=1;strokeColor=none;fillColor=none;align=center;verticalAlign=middle;whiteSpace=wrap;rounded=0;" vertex="1" parent="WIyWlLk6GJQsqaUBKTNV-1">
          <mxGeometry x="720" y="10" width="377.5" height="300" as="geometry" />
        </mxCell>
        <mxCell id="9aqKh6qht5PxksOwf0Kg-4" value="&lt;font style=&quot;font-size: 19px;&quot;&gt;Saida:&lt;br&gt;Descrição textual(console)&lt;br&gt;Grafico (conjunto de coordenadas)&lt;br&gt;Se der: (HTML? Tabela?)&lt;br&gt;&lt;/font&gt;" style="rounded=0;whiteSpace=wrap;html=1;" vertex="1" parent="WIyWlLk6GJQsqaUBKTNV-1">
          <mxGeometry x="425" y="1390" width="330" height="110" as="geometry" />
        </mxCell>
        <mxCell id="9aqKh6qht5PxksOwf0Kg-9" style="edgeStyle=orthogonalEdgeStyle;rounded=0;orthogonalLoop=1;jettySize=auto;html=1;exitX=0.5;exitY=1;exitDx=0;exitDy=0;entryX=0.5;entryY=0;entryDx=0;entryDy=0;" edge="1" parent="WIyWlLk6GJQsqaUBKTNV-1" source="9aqKh6qht5PxksOwf0Kg-5" target="9aqKh6qht5PxksOwf0Kg-7">
          <mxGeometry relative="1" as="geometry" />
        </mxCell>
        <mxCell id="9aqKh6qht5PxksOwf0Kg-5" value="&lt;font style=&quot;font-size: 15px;&quot;&gt;Interpretar JSON,&lt;br&gt;popular filas de prioridade&lt;/font&gt;" style="rounded=0;whiteSpace=wrap;html=1;" vertex="1" parent="WIyWlLk6GJQsqaUBKTNV-1">
          <mxGeometry x="305" y="180" width="190" height="60" as="geometry" />
        </mxCell>
        <mxCell id="9aqKh6qht5PxksOwf0Kg-48" style="edgeStyle=orthogonalEdgeStyle;rounded=0;orthogonalLoop=1;jettySize=auto;html=1;exitX=0.5;exitY=1;exitDx=0;exitDy=0;entryX=0.5;entryY=0;entryDx=0;entryDy=0;" edge="1" parent="WIyWlLk6GJQsqaUBKTNV-1" source="9aqKh6qht5PxksOwf0Kg-7" target="9aqKh6qht5PxksOwf0Kg-4">
          <mxGeometry relative="1" as="geometry" />
        </mxCell>
        <mxCell id="9aqKh6qht5PxksOwf0Kg-7" value="" style="rounded=0;whiteSpace=wrap;html=1;" vertex="1" parent="WIyWlLk6GJQsqaUBKTNV-1">
          <mxGeometry x="-90" y="320" width="1360" height="950" as="geometry" />
        </mxCell>
        <mxCell id="9aqKh6qht5PxksOwf0Kg-8" value="Loop Principal" style="text;html=1;strokeColor=none;fillColor=none;align=center;verticalAlign=middle;whiteSpace=wrap;rounded=0;" vertex="1" parent="WIyWlLk6GJQsqaUBKTNV-1">
          <mxGeometry x="170" y="290" width="90" height="30" as="geometry" />
        </mxCell>
        <mxCell id="9aqKh6qht5PxksOwf0Kg-14" style="edgeStyle=orthogonalEdgeStyle;rounded=0;orthogonalLoop=1;jettySize=auto;html=1;exitX=0.75;exitY=1;exitDx=0;exitDy=0;entryX=0.5;entryY=0;entryDx=0;entryDy=0;" edge="1" parent="WIyWlLk6GJQsqaUBKTNV-1" source="9aqKh6qht5PxksOwf0Kg-11" target="9aqKh6qht5PxksOwf0Kg-13">
          <mxGeometry relative="1" as="geometry" />
        </mxCell>
        <mxCell id="9aqKh6qht5PxksOwf0Kg-15" style="edgeStyle=orthogonalEdgeStyle;rounded=0;orthogonalLoop=1;jettySize=auto;html=1;exitX=0.25;exitY=1;exitDx=0;exitDy=0;" edge="1" parent="WIyWlLk6GJQsqaUBKTNV-1" source="9aqKh6qht5PxksOwf0Kg-11" target="9aqKh6qht5PxksOwf0Kg-12">
          <mxGeometry relative="1" as="geometry" />
        </mxCell>
        <mxCell id="9aqKh6qht5PxksOwf0Kg-11" value="Verificar se a fila de alta prioridade está vazia" style="rounded=0;whiteSpace=wrap;html=1;" vertex="1" parent="WIyWlLk6GJQsqaUBKTNV-1">
          <mxGeometry x="475" y="610" width="270" height="40" as="geometry" />
        </mxCell>
        <mxCell id="9aqKh6qht5PxksOwf0Kg-19" style="edgeStyle=orthogonalEdgeStyle;rounded=0;orthogonalLoop=1;jettySize=auto;html=1;exitX=0.5;exitY=1;exitDx=0;exitDy=0;entryX=0.5;entryY=0;entryDx=0;entryDy=0;" edge="1" parent="WIyWlLk6GJQsqaUBKTNV-1" source="9aqKh6qht5PxksOwf0Kg-12" target="9aqKh6qht5PxksOwf0Kg-46">
          <mxGeometry relative="1" as="geometry" />
        </mxCell>
        <mxCell id="9aqKh6qht5PxksOwf0Kg-34" style="edgeStyle=orthogonalEdgeStyle;rounded=0;orthogonalLoop=1;jettySize=auto;html=1;exitX=0.25;exitY=1;exitDx=0;exitDy=0;entryX=0.5;entryY=0;entryDx=0;entryDy=0;" edge="1" parent="WIyWlLk6GJQsqaUBKTNV-1" source="9aqKh6qht5PxksOwf0Kg-12" target="9aqKh6qht5PxksOwf0Kg-33">
          <mxGeometry relative="1" as="geometry" />
        </mxCell>
        <mxCell id="9aqKh6qht5PxksOwf0Kg-12" value="Se estiver, verificar se fila de baixa prioridade está vazia" style="rounded=0;whiteSpace=wrap;html=1;" vertex="1" parent="WIyWlLk6GJQsqaUBKTNV-1">
          <mxGeometry x="395" y="680" width="170" height="40" as="geometry" />
        </mxCell>
        <mxCell id="9aqKh6qht5PxksOwf0Kg-51" style="edgeStyle=orthogonalEdgeStyle;rounded=0;orthogonalLoop=1;jettySize=auto;html=1;exitX=0.5;exitY=1;exitDx=0;exitDy=0;entryX=0.5;entryY=0;entryDx=0;entryDy=0;" edge="1" parent="WIyWlLk6GJQsqaUBKTNV-1" source="9aqKh6qht5PxksOwf0Kg-13" target="9aqKh6qht5PxksOwf0Kg-49">
          <mxGeometry relative="1" as="geometry" />
        </mxCell>
        <mxCell id="9aqKh6qht5PxksOwf0Kg-13" value="Se não estiver, pega processo da fila de alta prioridade" style="rounded=0;whiteSpace=wrap;html=1;" vertex="1" parent="WIyWlLk6GJQsqaUBKTNV-1">
          <mxGeometry x="655" y="680" width="170" height="40" as="geometry" />
        </mxCell>
        <mxCell id="9aqKh6qht5PxksOwf0Kg-21" style="edgeStyle=orthogonalEdgeStyle;rounded=0;orthogonalLoop=1;jettySize=auto;html=1;exitX=0.25;exitY=1;exitDx=0;exitDy=0;entryX=0.5;entryY=0;entryDx=0;entryDy=0;" edge="1" parent="WIyWlLk6GJQsqaUBKTNV-1" source="9aqKh6qht5PxksOwf0Kg-16" target="9aqKh6qht5PxksOwf0Kg-20">
          <mxGeometry relative="1" as="geometry" />
        </mxCell>
        <mxCell id="9aqKh6qht5PxksOwf0Kg-41" style="edgeStyle=orthogonalEdgeStyle;rounded=0;orthogonalLoop=1;jettySize=auto;html=1;exitX=0.75;exitY=1;exitDx=0;exitDy=0;" edge="1" parent="WIyWlLk6GJQsqaUBKTNV-1" source="9aqKh6qht5PxksOwf0Kg-16" target="9aqKh6qht5PxksOwf0Kg-22">
          <mxGeometry relative="1" as="geometry" />
        </mxCell>
        <mxCell id="9aqKh6qht5PxksOwf0Kg-16" value="Verificar se instrução é de E/S" style="rounded=0;whiteSpace=wrap;html=1;" vertex="1" parent="WIyWlLk6GJQsqaUBKTNV-1">
          <mxGeometry x="585" y="980" width="200" height="40" as="geometry" />
        </mxCell>
        <mxCell id="9aqKh6qht5PxksOwf0Kg-44" style="edgeStyle=orthogonalEdgeStyle;rounded=0;orthogonalLoop=1;jettySize=auto;html=1;exitX=0.5;exitY=1;exitDx=0;exitDy=0;entryX=0.25;entryY=0;entryDx=0;entryDy=0;" edge="1" parent="WIyWlLk6GJQsqaUBKTNV-1" source="9aqKh6qht5PxksOwf0Kg-20" target="9aqKh6qht5PxksOwf0Kg-63">
          <mxGeometry relative="1" as="geometry" />
        </mxCell>
        <mxCell id="9aqKh6qht5PxksOwf0Kg-20" value="Se for, coloca processo na lista de E/S do dispositivo correto" style="rounded=0;whiteSpace=wrap;html=1;" vertex="1" parent="WIyWlLk6GJQsqaUBKTNV-1">
          <mxGeometry x="460" y="1060" width="170" height="40" as="geometry" />
        </mxCell>
        <mxCell id="9aqKh6qht5PxksOwf0Kg-45" style="edgeStyle=orthogonalEdgeStyle;rounded=0;orthogonalLoop=1;jettySize=auto;html=1;exitX=0.25;exitY=1;exitDx=0;exitDy=0;entryX=0.75;entryY=0;entryDx=0;entryDy=0;" edge="1" parent="WIyWlLk6GJQsqaUBKTNV-1" source="9aqKh6qht5PxksOwf0Kg-22" target="9aqKh6qht5PxksOwf0Kg-63">
          <mxGeometry relative="1" as="geometry" />
        </mxCell>
        <mxCell id="9aqKh6qht5PxksOwf0Kg-22" value="Se não for, recoloca processo na fila de baixa prioridade" style="rounded=0;whiteSpace=wrap;html=1;" vertex="1" parent="WIyWlLk6GJQsqaUBKTNV-1">
          <mxGeometry x="700" y="1060" width="170" height="40" as="geometry" />
        </mxCell>
        <mxCell id="9aqKh6qht5PxksOwf0Kg-25" style="edgeStyle=orthogonalEdgeStyle;rounded=0;orthogonalLoop=1;jettySize=auto;html=1;exitX=0.25;exitY=1;exitDx=0;exitDy=0;entryX=0.5;entryY=0;entryDx=0;entryDy=0;" edge="1" parent="WIyWlLk6GJQsqaUBKTNV-1" source="9aqKh6qht5PxksOwf0Kg-23" target="9aqKh6qht5PxksOwf0Kg-24">
          <mxGeometry relative="1" as="geometry" />
        </mxCell>
        <mxCell id="9aqKh6qht5PxksOwf0Kg-28" style="edgeStyle=orthogonalEdgeStyle;rounded=0;orthogonalLoop=1;jettySize=auto;html=1;exitX=0.75;exitY=1;exitDx=0;exitDy=0;entryX=0.5;entryY=0;entryDx=0;entryDy=0;" edge="1" parent="WIyWlLk6GJQsqaUBKTNV-1" source="9aqKh6qht5PxksOwf0Kg-23" target="9aqKh6qht5PxksOwf0Kg-27">
          <mxGeometry relative="1" as="geometry" />
        </mxCell>
        <mxCell id="9aqKh6qht5PxksOwf0Kg-23" value="Verificar se algum processo READY nas filas de E/S" style="rounded=0;whiteSpace=wrap;html=1;" vertex="1" parent="WIyWlLk6GJQsqaUBKTNV-1">
          <mxGeometry x="450" y="450" width="320" height="40" as="geometry" />
        </mxCell>
        <mxCell id="9aqKh6qht5PxksOwf0Kg-30" style="edgeStyle=orthogonalEdgeStyle;rounded=0;orthogonalLoop=1;jettySize=auto;html=1;exitX=0.5;exitY=1;exitDx=0;exitDy=0;entryX=0.25;entryY=0;entryDx=0;entryDy=0;" edge="1" parent="WIyWlLk6GJQsqaUBKTNV-1" source="9aqKh6qht5PxksOwf0Kg-24" target="9aqKh6qht5PxksOwf0Kg-11">
          <mxGeometry relative="1" as="geometry" />
        </mxCell>
        <mxCell id="9aqKh6qht5PxksOwf0Kg-24" value="Se sim, colocar na fila adequada de acordo com a sua prioridade" style="rounded=0;whiteSpace=wrap;html=1;" vertex="1" parent="WIyWlLk6GJQsqaUBKTNV-1">
          <mxGeometry x="260" y="530" width="250" height="40" as="geometry" />
        </mxCell>
        <mxCell id="9aqKh6qht5PxksOwf0Kg-29" style="edgeStyle=orthogonalEdgeStyle;rounded=0;orthogonalLoop=1;jettySize=auto;html=1;exitX=0.25;exitY=1;exitDx=0;exitDy=0;entryX=0.75;entryY=0;entryDx=0;entryDy=0;" edge="1" parent="WIyWlLk6GJQsqaUBKTNV-1" source="9aqKh6qht5PxksOwf0Kg-27" target="9aqKh6qht5PxksOwf0Kg-11">
          <mxGeometry relative="1" as="geometry" />
        </mxCell>
        <mxCell id="9aqKh6qht5PxksOwf0Kg-27" value="Se não" style="rounded=0;whiteSpace=wrap;html=1;" vertex="1" parent="WIyWlLk6GJQsqaUBKTNV-1">
          <mxGeometry x="675" y="540" width="70" height="30" as="geometry" />
        </mxCell>
        <mxCell id="9aqKh6qht5PxksOwf0Kg-32" style="edgeStyle=orthogonalEdgeStyle;rounded=0;orthogonalLoop=1;jettySize=auto;html=1;exitX=0.5;exitY=1;exitDx=0;exitDy=0;entryX=0.5;entryY=0;entryDx=0;entryDy=0;" edge="1" parent="WIyWlLk6GJQsqaUBKTNV-1" source="9aqKh6qht5PxksOwf0Kg-31" target="9aqKh6qht5PxksOwf0Kg-16">
          <mxGeometry relative="1" as="geometry" />
        </mxCell>
        <mxCell id="9aqKh6qht5PxksOwf0Kg-31" value="Se não, popular grafico, printar no console açao" style="rounded=0;whiteSpace=wrap;html=1;" vertex="1" parent="WIyWlLk6GJQsqaUBKTNV-1">
          <mxGeometry x="607.5" y="920" width="155" height="40" as="geometry" />
        </mxCell>
        <mxCell id="9aqKh6qht5PxksOwf0Kg-39" style="edgeStyle=orthogonalEdgeStyle;rounded=0;orthogonalLoop=1;jettySize=auto;html=1;exitX=0.25;exitY=1;exitDx=0;exitDy=0;" edge="1" parent="WIyWlLk6GJQsqaUBKTNV-1" source="9aqKh6qht5PxksOwf0Kg-33" target="9aqKh6qht5PxksOwf0Kg-37">
          <mxGeometry relative="1" as="geometry" />
        </mxCell>
        <mxCell id="9aqKh6qht5PxksOwf0Kg-40" style="edgeStyle=orthogonalEdgeStyle;rounded=0;orthogonalLoop=1;jettySize=auto;html=1;exitX=0.75;exitY=1;exitDx=0;exitDy=0;entryX=0.5;entryY=0;entryDx=0;entryDy=0;" edge="1" parent="WIyWlLk6GJQsqaUBKTNV-1" source="9aqKh6qht5PxksOwf0Kg-33" target="9aqKh6qht5PxksOwf0Kg-38">
          <mxGeometry relative="1" as="geometry" />
        </mxCell>
        <mxCell id="9aqKh6qht5PxksOwf0Kg-33" value="Se estiver, verificar se filas de E/S estão vazias" style="rounded=0;whiteSpace=wrap;html=1;" vertex="1" parent="WIyWlLk6GJQsqaUBKTNV-1">
          <mxGeometry x="280" y="780" width="170" height="40" as="geometry" />
        </mxCell>
        <mxCell id="9aqKh6qht5PxksOwf0Kg-37" value="Se estiverem, sair do loop" style="rounded=0;whiteSpace=wrap;html=1;" vertex="1" parent="WIyWlLk6GJQsqaUBKTNV-1">
          <mxGeometry x="260" y="860" width="110" height="40" as="geometry" />
        </mxCell>
        <mxCell id="9aqKh6qht5PxksOwf0Kg-43" style="edgeStyle=orthogonalEdgeStyle;rounded=0;orthogonalLoop=1;jettySize=auto;html=1;exitX=0.5;exitY=1;exitDx=0;exitDy=0;entryX=0;entryY=0.5;entryDx=0;entryDy=0;" edge="1" parent="WIyWlLk6GJQsqaUBKTNV-1" source="9aqKh6qht5PxksOwf0Kg-38" target="9aqKh6qht5PxksOwf0Kg-42">
          <mxGeometry relative="1" as="geometry" />
        </mxCell>
        <mxCell id="9aqKh6qht5PxksOwf0Kg-38" value="Se não" style="rounded=0;whiteSpace=wrap;html=1;" vertex="1" parent="WIyWlLk6GJQsqaUBKTNV-1">
          <mxGeometry x="404" y="870" width="70" height="30" as="geometry" />
        </mxCell>
        <mxCell id="9aqKh6qht5PxksOwf0Kg-42" value="Reinicia loop" style="rounded=0;whiteSpace=wrap;html=1;" vertex="1" parent="WIyWlLk6GJQsqaUBKTNV-1">
          <mxGeometry x="607.5" y="1200" width="110" height="40" as="geometry" />
        </mxCell>
        <mxCell id="9aqKh6qht5PxksOwf0Kg-47" style="edgeStyle=orthogonalEdgeStyle;rounded=0;orthogonalLoop=1;jettySize=auto;html=1;exitX=1;exitY=0.5;exitDx=0;exitDy=0;entryX=0;entryY=0.5;entryDx=0;entryDy=0;" edge="1" parent="WIyWlLk6GJQsqaUBKTNV-1" source="9aqKh6qht5PxksOwf0Kg-46" target="9aqKh6qht5PxksOwf0Kg-49">
          <mxGeometry relative="1" as="geometry" />
        </mxCell>
        <mxCell id="9aqKh6qht5PxksOwf0Kg-46" value="Se não estiver, pega processo da fila de baixa prioridade" style="rounded=0;whiteSpace=wrap;html=1;" vertex="1" parent="WIyWlLk6GJQsqaUBKTNV-1">
          <mxGeometry x="475" y="750" width="170" height="40" as="geometry" />
        </mxCell>
        <mxCell id="9aqKh6qht5PxksOwf0Kg-57" style="edgeStyle=orthogonalEdgeStyle;rounded=0;orthogonalLoop=1;jettySize=auto;html=1;exitX=0.75;exitY=1;exitDx=0;exitDy=0;" edge="1" parent="WIyWlLk6GJQsqaUBKTNV-1" source="9aqKh6qht5PxksOwf0Kg-49" target="9aqKh6qht5PxksOwf0Kg-52">
          <mxGeometry relative="1" as="geometry" />
        </mxCell>
        <mxCell id="9aqKh6qht5PxksOwf0Kg-59" style="edgeStyle=orthogonalEdgeStyle;rounded=0;orthogonalLoop=1;jettySize=auto;html=1;exitX=0.25;exitY=1;exitDx=0;exitDy=0;entryX=0.5;entryY=0;entryDx=0;entryDy=0;" edge="1" parent="WIyWlLk6GJQsqaUBKTNV-1" source="9aqKh6qht5PxksOwf0Kg-49" target="9aqKh6qht5PxksOwf0Kg-31">
          <mxGeometry relative="1" as="geometry" />
        </mxCell>
        <mxCell id="9aqKh6qht5PxksOwf0Kg-49" value="Verifica se processo acabou" style="rounded=0;whiteSpace=wrap;html=1;" vertex="1" parent="WIyWlLk6GJQsqaUBKTNV-1">
          <mxGeometry x="690" y="810" width="155" height="40" as="geometry" />
        </mxCell>
        <mxCell id="9aqKh6qht5PxksOwf0Kg-55" style="edgeStyle=orthogonalEdgeStyle;rounded=0;orthogonalLoop=1;jettySize=auto;html=1;exitX=0.25;exitY=1;exitDx=0;exitDy=0;entryX=0.25;entryY=0;entryDx=0;entryDy=0;" edge="1" parent="WIyWlLk6GJQsqaUBKTNV-1" source="9aqKh6qht5PxksOwf0Kg-52" target="9aqKh6qht5PxksOwf0Kg-54">
          <mxGeometry relative="1" as="geometry" />
        </mxCell>
        <mxCell id="9aqKh6qht5PxksOwf0Kg-56" style="edgeStyle=orthogonalEdgeStyle;rounded=0;orthogonalLoop=1;jettySize=auto;html=1;exitX=0.75;exitY=1;exitDx=0;exitDy=0;" edge="1" parent="WIyWlLk6GJQsqaUBKTNV-1" source="9aqKh6qht5PxksOwf0Kg-52" target="9aqKh6qht5PxksOwf0Kg-53">
          <mxGeometry relative="1" as="geometry" />
        </mxCell>
        <mxCell id="9aqKh6qht5PxksOwf0Kg-52" value="Se sim, procurar filhos do processo nas filas" style="rounded=0;whiteSpace=wrap;html=1;" vertex="1" parent="WIyWlLk6GJQsqaUBKTNV-1">
          <mxGeometry x="865" y="900" width="150" height="50" as="geometry" />
        </mxCell>
        <mxCell id="9aqKh6qht5PxksOwf0Kg-66" style="edgeStyle=orthogonalEdgeStyle;rounded=0;orthogonalLoop=1;jettySize=auto;html=1;exitX=0.5;exitY=1;exitDx=0;exitDy=0;entryX=0.75;entryY=0;entryDx=0;entryDy=0;" edge="1" parent="WIyWlLk6GJQsqaUBKTNV-1" source="9aqKh6qht5PxksOwf0Kg-53" target="9aqKh6qht5PxksOwf0Kg-65">
          <mxGeometry relative="1" as="geometry" />
        </mxCell>
        <mxCell id="9aqKh6qht5PxksOwf0Kg-53" value="Se não" style="rounded=0;whiteSpace=wrap;html=1;" vertex="1" parent="WIyWlLk6GJQsqaUBKTNV-1">
          <mxGeometry x="1015" y="990" width="65" height="30" as="geometry" />
        </mxCell>
        <mxCell id="9aqKh6qht5PxksOwf0Kg-67" style="edgeStyle=orthogonalEdgeStyle;rounded=0;orthogonalLoop=1;jettySize=auto;html=1;exitX=0.5;exitY=1;exitDx=0;exitDy=0;entryX=0.25;entryY=0;entryDx=0;entryDy=0;" edge="1" parent="WIyWlLk6GJQsqaUBKTNV-1" source="9aqKh6qht5PxksOwf0Kg-54" target="9aqKh6qht5PxksOwf0Kg-65">
          <mxGeometry relative="1" as="geometry" />
        </mxCell>
        <mxCell id="9aqKh6qht5PxksOwf0Kg-54" value="Se encontrar, KILL ALL CHILDREN" style="rounded=0;whiteSpace=wrap;html=1;" vertex="1" parent="WIyWlLk6GJQsqaUBKTNV-1">
          <mxGeometry x="840" y="990" width="150" height="50" as="geometry" />
        </mxCell>
        <mxCell id="9aqKh6qht5PxksOwf0Kg-61" style="edgeStyle=orthogonalEdgeStyle;rounded=0;orthogonalLoop=1;jettySize=auto;html=1;exitX=0.5;exitY=1;exitDx=0;exitDy=0;" edge="1" parent="WIyWlLk6GJQsqaUBKTNV-1" source="9aqKh6qht5PxksOwf0Kg-60" target="9aqKh6qht5PxksOwf0Kg-23">
          <mxGeometry relative="1" as="geometry" />
        </mxCell>
        <mxCell id="9aqKh6qht5PxksOwf0Kg-60" value="Decrementar TimeUntilReady em todos os processos nas filas de E/S e atualizar Status quando necessário" style="rounded=0;whiteSpace=wrap;html=1;" vertex="1" parent="WIyWlLk6GJQsqaUBKTNV-1">
          <mxGeometry x="450" y="360" width="320" height="40" as="geometry" />
        </mxCell>
        <mxCell id="9aqKh6qht5PxksOwf0Kg-64" style="edgeStyle=orthogonalEdgeStyle;rounded=0;orthogonalLoop=1;jettySize=auto;html=1;exitX=0.5;exitY=1;exitDx=0;exitDy=0;entryX=0.5;entryY=0;entryDx=0;entryDy=0;" edge="1" parent="WIyWlLk6GJQsqaUBKTNV-1" source="9aqKh6qht5PxksOwf0Kg-63" target="9aqKh6qht5PxksOwf0Kg-42">
          <mxGeometry relative="1" as="geometry" />
        </mxCell>
        <mxCell id="9aqKh6qht5PxksOwf0Kg-63" value="Incrementa tempo" style="rounded=0;whiteSpace=wrap;html=1;" vertex="1" parent="WIyWlLk6GJQsqaUBKTNV-1">
          <mxGeometry x="607.5" y="1140" width="110" height="40" as="geometry" />
        </mxCell>
        <mxCell id="9aqKh6qht5PxksOwf0Kg-69" style="edgeStyle=orthogonalEdgeStyle;rounded=0;orthogonalLoop=1;jettySize=auto;html=1;exitX=0.5;exitY=1;exitDx=0;exitDy=0;entryX=1;entryY=0.5;entryDx=0;entryDy=0;" edge="1" parent="WIyWlLk6GJQsqaUBKTNV-1" source="9aqKh6qht5PxksOwf0Kg-65" target="9aqKh6qht5PxksOwf0Kg-42">
          <mxGeometry relative="1" as="geometry" />
        </mxCell>
        <mxCell id="9aqKh6qht5PxksOwf0Kg-65" value="Destruir processo" style="rounded=0;whiteSpace=wrap;html=1;" vertex="1" parent="WIyWlLk6GJQsqaUBKTNV-1">
          <mxGeometry x="920" y="1090" width="150" height="30" as="geometry" />
        </mxCell>
      </root>
    </mxGraphModel>
  </diagram>
</mxfile>
